<svg width="1536" height="849" viewBox="0 0 1536 849" fill="none" xmlns="http://www.w3.org/2000/svg">
<mask id="mask0_4302_4" style="mask-type:alpha" maskUnits="userSpaceOnUse" x="0" y="0" width="1536" height="761">
<path d="M0 0H1536V733C1536 733 1099.85 759.107 800 760.903V756C800 738.327 785.673 724 768 724C750.327 724 736 738.327 736 756V760.897C435.785 759.051 0 733 0 733V0Z" fill="#17181E"/>
<path d="M0 0H1536V733C1536 733 1099.85 759.107 800 760.903V756C800 738.327 785.673 724 768 724C750.327 724 736 738.327 736 756V760.897C435.785 759.051 0 733 0 733V0Z" fill="url(#paint0_radial_4302_4)"/>
</mask>
<g mask="url(#mask0_4302_4)">
<path d="M0 0H1536V733C1536 733 1099.85 759.107 800 760.903V756C800 738.327 785.673 724 768 724C750.327 724 736 738.327 736 756V760.897C435.785 759.051 0 733 0 733V0Z" fill="#17181E"/>
<path d="M0 0H1536V733C1536 733 1099.85 759.107 800 760.903V756C800 738.327 785.673 724 768 724C750.327 724 736 738.327 736 756V760.897C435.785 759.051 0 733 0 733V0Z" fill="url(#paint1_radial_4302_4)"/>
<path d="M-322 523.498C-255.149 484.794 102.305 443.581 252 483.5C439.119 533.398 715 650.427 948 631.5C1181 612.573 1625 335.02 1720 288V1019H-322V523.498Z" fill="url(#paint2_linear_4302_4)"/>
</g>
<g filter="url(#filter0_f_4302_4)">
<ellipse cx="1219.5" cy="658" rx="388.5" ry="41" fill="#FC6652" fill-opacity="0.54"/>
</g>
<defs>
<filter id="filter0_f_4302_4" x="681" y="467" width="1077" height="382" filterUnits="userSpaceOnUse" color-interpolation-filters="sRGB">
<feFlood flood-opacity="0" result="BackgroundImageFix"/>
<feBlend mode="normal" in="SourceGraphic" in2="BackgroundImageFix" result="shape"/>
<feGaussianBlur stdDeviation="75" result="effect1_foregroundBlur_4302_4"/>
</filter>
<radialGradient id="paint0_radial_4302_4" cx="0" cy="0" r="1" gradientUnits="userSpaceOnUse" gradientTransform="translate(-204.5 297) rotate(9.28161) scale(703.713 703.713)">
<stop stop-color="#8A2E21"/>
<stop offset="1" stop-color="#452B14" stop-opacity="0"/>
</radialGradient>
<radialGradient id="paint1_radial_4302_4" cx="0" cy="0" r="1" gradientUnits="userSpaceOnUse" gradientTransform="translate(-204.5 297) rotate(9.28161) scale(703.713 703.713)">
<stop stop-color="#8A2E21"/>
<stop offset="1" stop-color="#452B14" stop-opacity="0"/>
</radialGradient>
<linearGradient id="paint2_linear_4302_4" x1="699" y1="531.5" x2="699" y2="926" gradientUnits="userSpaceOnUse">
<stop stop-color="#FF9C8E" stop-opacity="0.21"/>
<stop offset="1" stop-color="#FFA498" stop-opacity="0"/>
</linearGradient>
</defs>
</svg>
